<svg xmlns="http://www.w3.org/2000/svg" width="26" height="26" viewBox="0 0 26 26">
  <g id="h_config_icon" transform="translate(-1869 -20)">
    <path id="패스_55" data-name="패스 55" d="M8.633,2.173a8.219,8.219,0,0,1,3.366,0,3.291,3.291,0,0,0,4.453,2.571,8.218,8.218,0,0,1,1.681,2.916,3.291,3.291,0,0,0,0,5.14,8.308,8.308,0,0,1-1.683,2.915A3.291,3.291,0,0,0,12,18.28a8.22,8.22,0,0,1-3.366,0A3.291,3.291,0,0,0,4.18,15.712,8.219,8.219,0,0,1,2.5,12.8a3.291,3.291,0,0,0,0-5.14A8.307,8.307,0,0,1,4.181,4.741,3.291,3.291,0,0,0,8.633,2.173Zm1.683,10.522a2.468,2.468,0,1,0-2.468-2.468A2.468,2.468,0,0,0,10.316,12.695Z" transform="translate(1871.502 23.002)" fill="#f3f3f3"/>
    <rect id="사각형_468" data-name="사각형 468" width="26" height="26" transform="translate(1869 20)" fill="none"/>
  </g>
</svg>
